<svg xmlns="http://www.w3.org/2000/svg" width="55.293" height="66.853" viewBox="0 0 55.293 66.853">
  <g id="GITHUB_icon-icons.com_65505" transform="translate(-73.2 -61.4)">
    <path id="Path_1" data-name="Path 1" d="M95.157,119.364c-1,.106-1.841.211-2.686.3-4.391.438-8.225-.755-11.122-4.18a33.87,33.87,0,0,1-2.188-3.652c-1.192-1.871-2.415-3.727-3.727-5.523a11.428,11.428,0,0,0-1.841-1.509c-.2-.166-.257-.483-.392-.739a3.528,3.528,0,0,1,.8-.317c3.471-.317,5.916,1.283,7.621,4.165a10.361,10.361,0,0,0,9.387,5.553,16.7,16.7,0,0,0,3.607-.679.922.922,0,0,0,.528-.664,14.036,14.036,0,0,1,1.132-4.573c.272-.528.589-1.026.905-1.569-1.222-.241-2.4-.423-3.561-.709-5.357-1.358-9.779-4.044-12.344-9.145a15.314,15.314,0,0,1-1.63-6.368,43.571,43.571,0,0,1,.619-10.292,11.675,11.675,0,0,1,3.214-6.323,1.022,1.022,0,0,0,.257-1.283,13.444,13.444,0,0,1-.257-8.572c.181-.619.347-1.237.528-1.886,4.135.785,6.595,3.577,8.9,6.67,2.384-1.766,5.206-1.917,7.953-2.1a43.3,43.3,0,0,1,9.779.362,10.733,10.733,0,0,1,4.376,1.6c1.419-1.464,2.747-2.943,4.21-4.286a9.105,9.105,0,0,1,4.18-2.113c.438-.106.664-.06.845.423a13.449,13.449,0,0,1,.06,9.99.887.887,0,0,0,.211,1.132,12.023,12.023,0,0,1,3.5,7.621,71.663,71.663,0,0,1,.468,8.043,16.131,16.131,0,0,1-3.531,10.322,17.064,17.064,0,0,1-6.353,4.8,25.556,25.556,0,0,1-7.5,2.067,2.474,2.474,0,0,0-.226.106c1.781,2.55,2.067,5.418,2.037,8.391-.045,4.331-.03,8.647,0,12.978,0,.679-.2.845-.86.845q-8.036-.045-16.072,0c-.664,0-.875-.211-.875-.86.03-2.339.015-4.678.015-7.017C95.157,120.028,95.157,119.726,95.157,119.364Z" fill="#042c41"/>
  </g>
</svg>
