<svg xmlns="http://www.w3.org/2000/svg" width="30" height="30" viewBox="0 0 30 30">
  <g id="GITHUB_icon-icons.com_65505" transform="translate(-73.201 -61.399)">
    <path id="Path_1" data-name="Path 1" d="M85.114,87.411c-.543.048-1,.095-1.457.135a7.37,7.37,0,0,1-6.035-1.876,14.943,14.943,0,0,1-1.187-1.639c-.647-.84-1.31-1.673-2.022-2.479a6.112,6.112,0,0,0-1-.677c-.109-.075-.139-.217-.213-.332a2.165,2.165,0,0,1,.434-.142,4.343,4.343,0,0,1,4.135,1.869,5.886,5.886,0,0,0,5.093,2.492,10.768,10.768,0,0,0,1.957-.3.439.439,0,0,0,.286-.3,5.434,5.434,0,0,1,.614-2.052c.148-.237.32-.46.491-.7-.663-.108-1.3-.19-1.932-.318-2.907-.609-5.306-1.815-6.7-4.1a5.954,5.954,0,0,1-.884-2.858,16.238,16.238,0,0,1,.336-4.619,4.987,4.987,0,0,1,1.744-2.838.408.408,0,0,0,.139-.576,5.053,5.053,0,0,1-.139-3.847c.1-.278.188-.555.286-.846a7.919,7.919,0,0,1,4.829,2.993,8.973,8.973,0,0,1,4.315-.942,28.362,28.362,0,0,1,5.306.162,6.63,6.63,0,0,1,2.374.718c.77-.657,1.491-1.321,2.284-1.923a5.385,5.385,0,0,1,2.268-.948c.238-.048.36-.027.458.19a5.074,5.074,0,0,1,.033,4.483.354.354,0,0,0,.115.508,5.047,5.047,0,0,1,1.9,3.42,26.668,26.668,0,0,1,.254,3.609,6.486,6.486,0,0,1-1.916,4.632,9.3,9.3,0,0,1-3.447,2.154,16.18,16.18,0,0,1-4.069.928q-.063.021-.123.048A5.338,5.338,0,0,1,94.75,85.2c-.024,1.944-.016,3.88,0,5.824,0,.3-.109.379-.467.379q-4.36-.02-8.721,0c-.36,0-.475-.095-.475-.386.016-1.05.008-2.1.008-3.149A3.767,3.767,0,0,0,85.114,87.411Z" transform="translate(0 0)" fill="#042c41"/>
  </g>
</svg>
