<svg xmlns="http://www.w3.org/2000/svg" width="67.159" height="66.853" viewBox="0 0 67.159 66.853">
  <g id="circle-linkedin_icon-icons.com_66820" transform="translate(-97.081 -36.17)">
    <g id="Layer_2_1_" transform="translate(97.081 36.17)">
      <g id="Group_2" data-name="Group 2" transform="translate(0 0)">
        <path id="Path_2" data-name="Path 2" d="M230.9,218.236c.9-1.1,1.582-2.176,2.43-3.051a14.234,14.234,0,0,1,5.764-3.645,17.5,17.5,0,0,1,7.516-.678,15.3,15.3,0,0,1,10.4,5.086,16.013,16.013,0,0,1,2.967,4.944,27.232,27.232,0,0,1,1.723,8.222c0,9.069,0,18.167.028,27.237,0,.452-.113.593-.593.593-4.153,0-8.307-.028-12.46,0-.593,0-.678-.2-.678-.735V232.391a15.681,15.681,0,0,0-.509-4.294,7.187,7.187,0,0,0-4.521-4.888,10.068,10.068,0,0,0-6.046-.339,7.97,7.97,0,0,0-4.944,4.012,8.917,8.917,0,0,0-.989,3.532,24.572,24.572,0,0,0-.113,2.882v22.8c0,.65-.17.791-.791.791-4.012-.028-8.052-.028-12.064,0-.735,0-.819-.254-.819-.848q.042-21.021.028-42.013c0-1.639,0-1.639,1.639-1.639H230.2c.509,0,.65.17.65.678C230.9,214.733,230.9,216.372,230.9,218.236Z" transform="translate(-194.569 -190.091)" fill="#042c41"/>
        <path id="Path_3" data-name="Path 3" d="M138.5,239.923V218.591c0-.593.141-.791.763-.791,4.1.028,8.165.028,12.262,0,.622,0,.763.2.763.791V261.2c0,.622-.141.819-.791.819-4.1-.028-8.165-.028-12.262,0-.593,0-.735-.169-.735-.763C138.528,254.162,138.5,247.042,138.5,239.923Z" transform="translate(-138.104 -195.164)" fill="#042c41"/>
        <path id="Path_4" data-name="Path 4" d="M144.192,137.688c4.436-.141,7.007,3.136,7.035,6.979,0,3.956-2.769,6.894-7.12,6.894a6.937,6.937,0,1,1,.085-13.873Z" transform="translate(-137.1 -137.684)" fill="#042c41"/>
      </g>
    </g>
  </g>
</svg>
