<svg xmlns="http://www.w3.org/2000/svg" width="30" height="30" viewBox="0 0 30 30">
  <g id="circle-linkedin_icon-icons.com_66820" transform="translate(-97.193 -36.17)">
    <g id="Layer_2_1_" transform="translate(97.193 36.17)">
      <g id="Group_2" data-name="Group 2" transform="translate(0 0)">
        <path id="Path_2" data-name="Path 2" d="M223.3,214.067c.4-.49.7-.969,1.082-1.359a6.338,6.338,0,0,1,2.567-1.623,7.792,7.792,0,0,1,3.347-.3,6.813,6.813,0,0,1,4.631,2.265,7.131,7.131,0,0,1,1.321,2.2,12.126,12.126,0,0,1,.767,3.661c0,4.038,0,8.09.012,12.128,0,.2-.05.264-.264.264-1.849,0-3.7-.012-5.548,0-.264,0-.3-.089-.3-.327V220.37a6.982,6.982,0,0,0-.227-1.912,3.2,3.2,0,0,0-2.013-2.177,4.483,4.483,0,0,0-2.692-.151,3.549,3.549,0,0,0-2.2,1.786,3.971,3.971,0,0,0-.44,1.573,10.94,10.94,0,0,0-.05,1.283v10.153c0,.289-.076.352-.352.352-1.786-.012-3.585-.012-5.372,0-.327,0-.365-.113-.365-.378q.019-9.36.012-18.708c0-.73,0-.73.73-.73h5.046c.227,0,.289.076.289.3C223.3,212.507,223.3,213.237,223.3,214.067Z" transform="translate(-207.028 -201.304)" fill="#042c41"/>
        <path id="Path_3" data-name="Path 3" d="M138.5,227.651v-9.5c0-.264.063-.352.34-.352,1.826.012,3.636.012,5.46,0,.277,0,.34.089.34.352v18.973c0,.277-.063.365-.352.365-1.826-.012-3.636-.012-5.46,0-.264,0-.327-.075-.327-.34C138.512,233.992,138.5,230.821,138.5,227.651Z" transform="translate(-138.374 -207.49)" fill="#042c41"/>
        <path id="Path_4" data-name="Path 4" d="M140.32,137.686a3.089,3.089,0,1,1-.038,6.178,3.089,3.089,0,1,1,.038-6.178Z" transform="translate(-137.212 -137.684)" fill="#042c41"/>
      </g>
    </g>
  </g>
</svg>
