<svg xmlns="http://www.w3.org/2000/svg" xmlns:xlink="http://www.w3.org/1999/xlink" width="1401" height="2535.121" viewBox="0 0 1401 2535.121">
  <defs>
    <radialGradient id="radial-gradient" cx="0.321" cy="0.198" r="0.958" gradientTransform="matrix(0.219, 0.976, -2.44, 0.548, 0.733, -0.224)" gradientUnits="objectBoundingBox">
      <stop offset="0" stop-color="#042c41"/>
      <stop offset="0" stop-color="#1f81a8"/>
      <stop offset="0" stop-color="#042c41"/>
      <stop offset="0.054" stop-color="#04293d"/>
      <stop offset="1" stop-color="#01090d"/>
    </radialGradient>
    <linearGradient id="linear-gradient" x1="0.5" x2="0.5" y2="1" gradientUnits="objectBoundingBox">
      <stop offset="0" stop-color="#16b3d9"/>
      <stop offset="1" stop-color="#0b5a6d"/>
    </linearGradient>
    <linearGradient id="linear-gradient-23" x1="0.5" x2="0.5" y2="1" gradientUnits="objectBoundingBox">
      <stop offset="0" stop-color="#16b3d9"/>
      <stop offset="1" stop-color="#042c41"/>
      <stop offset="1" stop-color="#01090d"/>
    </linearGradient>
    <linearGradient id="linear-gradient-35" x1="0.5" x2="0.5" y2="1" gradientUnits="objectBoundingBox">
      <stop offset="0" stop-color="#1f81a8"/>
      <stop offset="1" stop-color="#0f6e78"/>
    </linearGradient>
    <linearGradient id="linear-gradient-47" x1="0.5" x2="0.5" y2="1" gradientUnits="objectBoundingBox">
      <stop offset="0" stop-color="#042c41"/>
      <stop offset="1" stop-color="#0f6e78"/>
    </linearGradient>
  </defs>
  <g id="background" transform="translate(548 -13)">
    <path id="background-2" data-name="background" d="M0,0H1400V2535.121H0Z" transform="translate(-548 13)" fill="url(#radial-gradient)"/>
    <g id="stars">
      <g id="stars-1" transform="translate(234.991 263.98) rotate(43)">
        <circle id="Ellipse_6" data-name="Ellipse 6" cx="1.284" cy="1.284" r="1.284" transform="translate(108.737 780.621)" fill="url(#linear-gradient)"/>
        <circle id="Ellipse_9" data-name="Ellipse 9" cx="1.284" cy="1.284" r="1.284" transform="translate(0 1068.768)" fill="url(#linear-gradient)"/>
        <circle id="Ellipse_15" data-name="Ellipse 15" cx="1.284" cy="1.284" r="1.284" transform="translate(188.555 1141.116)" fill="url(#linear-gradient)"/>
        <circle id="Ellipse_16" data-name="Ellipse 16" cx="1.284" cy="1.284" r="1.284" transform="translate(361.396 522.673)" fill="url(#linear-gradient)"/>
        <circle id="Ellipse_26" data-name="Ellipse 26" cx="1.284" cy="1.284" r="1.284" transform="translate(260.471 367.723)" fill="url(#linear-gradient)"/>
        <circle id="Ellipse_27" data-name="Ellipse 27" cx="1.284" cy="1.284" r="1.284" transform="translate(98.89 56.081)" fill="url(#linear-gradient)"/>
        <circle id="Ellipse_7" data-name="Ellipse 7" cx="1.284" cy="1.284" r="1.284" transform="translate(48.375 659.101)" fill="url(#linear-gradient)"/>
        <circle id="Ellipse_11" data-name="Ellipse 11" cx="1.284" cy="1.284" r="1.284" transform="translate(389.8 837.541)" fill="url(#linear-gradient)"/>
        <circle id="Ellipse_21" data-name="Ellipse 21" cx="1.284" cy="1.284" r="1.284" transform="translate(476.221 1116.286)" fill="url(#linear-gradient)"/>
        <circle id="Ellipse_17" data-name="Ellipse 17" cx="1.284" cy="1.284" r="1.284" transform="translate(260.471 913.435)" fill="url(#linear-gradient)"/>
        <circle id="Ellipse_14" data-name="Ellipse 14" cx="1.284" cy="1.284" r="1.284" transform="translate(665.38 1129.129)" fill="url(#linear-gradient)"/>
        <circle id="Ellipse_20" data-name="Ellipse 20" cx="1.284" cy="1.284" r="1.284" transform="translate(811.629 1104.728)" fill="url(#linear-gradient)"/>
        <circle id="Ellipse_10" data-name="Ellipse 10" cx="1.284" cy="1.284" r="1.284" transform="translate(15.411 392.118)" fill="url(#linear-gradient)"/>
        <circle id="Ellipse_8" data-name="Ellipse 8" cx="1.284" cy="1.284" r="1.284" transform="translate(260.471 549.326)" fill="url(#linear-gradient)"/>
        <circle id="Ellipse_18" data-name="Ellipse 18" cx="1.284" cy="1.284" r="1.284" transform="translate(317.279 34.676)" fill="url(#linear-gradient)"/>
        <circle id="Ellipse_25" data-name="Ellipse 25" cx="1.284" cy="1.284" r="1.284" transform="translate(463.53 276.47)" fill="url(#linear-gradient)"/>
        <circle id="Ellipse_12" data-name="Ellipse 12" cx="1.284" cy="1.284" r="1.284" transform="translate(621.263 276.47)" fill="url(#linear-gradient)"/>
        <circle id="Ellipse_24" data-name="Ellipse 24" cx="1.284" cy="1.284" r="1.284" transform="translate(675.654)" fill="url(#linear-gradient)"/>
        <circle id="Ellipse_19" data-name="Ellipse 19" cx="1.284" cy="1.284" r="1.284" transform="translate(790.652 582.303)" fill="url(#linear-gradient)"/>
        <circle id="Ellipse_23" data-name="Ellipse 23" cx="1.284" cy="1.284" r="1.284" transform="translate(842.452 338.359)" fill="url(#linear-gradient)"/>
        <circle id="Ellipse_13" data-name="Ellipse 13" cx="1.284" cy="1.284" r="1.284" transform="translate(502.812 582.303)" fill="url(#linear-gradient)"/>
        <circle id="Ellipse_22" data-name="Ellipse 22" cx="1.284" cy="1.284" r="1.284" transform="translate(608.572 810.888)" fill="url(#linear-gradient)"/>
      </g>
      <g id="stars-2" transform="translate(853 2284.191) rotate(-180)">
        <circle id="Ellipse_6-2" data-name="Ellipse 6" cx="3" cy="3" r="3" transform="translate(201 1574.809)" fill="url(#linear-gradient-23)"/>
        <circle id="Ellipse_15-2" data-name="Ellipse 15" cx="3" cy="3" r="3" transform="translate(284 2262.809)" fill="url(#linear-gradient-23)"/>
        <circle id="Ellipse_16-2" data-name="Ellipse 16" cx="3" cy="3" r="3" transform="translate(578 1057.809)" fill="url(#linear-gradient-23)"/>
        <circle id="Ellipse_27-2" data-name="Ellipse 27" cx="3" cy="3" r="3" transform="translate(177 120.809)" fill="url(#linear-gradient-23)"/>
        <circle id="Ellipse_11-2" data-name="Ellipse 11" cx="3" cy="3" r="3" transform="translate(627 1687.809)" fill="url(#linear-gradient-23)"/>
        <circle id="Ellipse_14-2" data-name="Ellipse 14" cx="3" cy="3" r="3" transform="translate(1092 2253.809)" fill="url(#linear-gradient-23)"/>
        <circle id="Ellipse_10-2" data-name="Ellipse 10" cx="3" cy="3" r="3" transform="translate(0 796.809)" fill="url(#linear-gradient-23)"/>
        <circle id="Ellipse_8-2" data-name="Ellipse 8" cx="3" cy="3" r="3" transform="translate(407 1105.809)" fill="url(#linear-gradient-23)"/>
        <circle id="Ellipse_25-2" data-name="Ellipse 25" cx="3" cy="3" r="3" transform="translate(750 563.809)" fill="url(#linear-gradient-23)"/>
        <circle id="Ellipse_24-2" data-name="Ellipse 24" cx="3" cy="3" r="3" transform="translate(1115 -0.191)" fill="url(#linear-gradient-23)"/>
        <circle id="Ellipse_23-2" data-name="Ellipse 23" cx="3" cy="3" r="3" transform="translate(1392 678.809)" fill="url(#linear-gradient-23)"/>
        <circle id="Ellipse_13-2" data-name="Ellipse 13" cx="3" cy="3" r="3" transform="translate(817 1172.809)" fill="url(#linear-gradient-23)"/>
      </g>
      <g id="stars-3" transform="matrix(-0.899, 0.438, -0.438, -0.899, 579.833, 946.628)">
        <circle id="Ellipse_6-3" data-name="Ellipse 6" cx="1.605" cy="1.605" r="1.605" transform="translate(95.185 313.127)" fill="url(#linear-gradient-35)"/>
        <circle id="Ellipse_15-3" data-name="Ellipse 15" cx="1.605" cy="1.605" r="1.605" transform="translate(57.521 670.852)" fill="url(#linear-gradient-35)"/>
        <circle id="Ellipse_16-3" data-name="Ellipse 16" cx="1.605" cy="1.605" r="1.605" transform="translate(158.281 44.604)" fill="url(#linear-gradient-35)"/>
        <circle id="Ellipse_27-3" data-name="Ellipse 27" cx="1.605" cy="1.605" r="1.605" transform="translate(79.135 -306.009)" fill="url(#linear-gradient-35)"/>
        <circle id="Ellipse_11-3" data-name="Ellipse 11" cx="1.605" cy="1.605" r="1.605" transform="translate(174.586 371.062)" fill="url(#linear-gradient-35)"/>
        <circle id="Ellipse_14-3" data-name="Ellipse 14" cx="1.605" cy="1.605" r="1.605" transform="translate(333.063 654.801)" fill="url(#linear-gradient-35)"/>
        <circle id="Ellipse_10-3" data-name="Ellipse 10" cx="1.605" cy="1.605" r="1.605" transform="translate(-39 -91.037)" fill="url(#linear-gradient-35)"/>
        <circle id="Ellipse_8-3" data-name="Ellipse 8" cx="1.605" cy="1.605" r="1.605" transform="translate(99.912 69.433)" fill="url(#linear-gradient-35)"/>
        <circle id="Ellipse_25-3" data-name="Ellipse 25" cx="1.605" cy="1.605" r="1.605" transform="translate(216.977 -211.965)" fill="url(#linear-gradient-35)"/>
        <circle id="Ellipse_24-3" data-name="Ellipse 24" cx="1.605" cy="1.605" r="1.605" transform="translate(341.541 -504.398)" fill="url(#linear-gradient-35)"/>
        <circle id="Ellipse_23-3" data-name="Ellipse 23" cx="1.605" cy="1.605" r="1.605" transform="translate(435.453 -151.271)" fill="url(#linear-gradient-35)"/>
        <circle id="Ellipse_13-3" data-name="Ellipse 13" cx="1.605" cy="1.605" r="1.605" transform="translate(239.802 105.757)" fill="url(#linear-gradient-35)"/>
      </g>
      <g id="stars-4" transform="translate(852 1755.294) rotate(-180)">
        <circle id="Ellipse_6-4" data-name="Ellipse 6" cx="3.5" cy="3.5" r="3.5" transform="translate(217 907.913)" fill="url(#linear-gradient-47)"/>
        <circle id="Ellipse_15-4" data-name="Ellipse 15" cx="3.5" cy="3.5" r="3.5" transform="translate(296 1639.913)" fill="url(#linear-gradient-47)"/>
        <circle id="Ellipse_16-4" data-name="Ellipse 16" cx="3.5" cy="3.5" r="3.5" transform="translate(587 357.913)" fill="url(#linear-gradient-47)"/>
        <circle id="Ellipse_27-4" data-name="Ellipse 27" cx="3.5" cy="3.5" r="3.5" transform="translate(193 -646.087)" fill="url(#linear-gradient-47)"/>
        <circle id="Ellipse_11-4" data-name="Ellipse 11" cx="3.5" cy="3.5" r="3.5" transform="translate(635 1026.913)" fill="url(#linear-gradient-47)"/>
        <circle id="Ellipse_14-4" data-name="Ellipse 14" cx="3.5" cy="3.5" r="3.5" transform="translate(1094 1630.913)" fill="url(#linear-gradient-47)"/>
        <circle id="Ellipse_10-4" data-name="Ellipse 10" cx="3.5" cy="3.5" r="3.5" transform="translate(16 78.913)" fill="url(#linear-gradient-47)"/>
        <circle id="Ellipse_8-4" data-name="Ellipse 8" cx="3.5" cy="3.5" r="3.5" transform="translate(418 407.913)" fill="url(#linear-gradient-47)"/>
        <circle id="Ellipse_25-4" data-name="Ellipse 25" cx="3.5" cy="3.5" r="3.5" transform="translate(756 -168.087)" fill="url(#linear-gradient-47)"/>
        <circle id="Ellipse_24-4" data-name="Ellipse 24" cx="3.5" cy="3.5" r="3.5" transform="translate(1117 -767.087)" fill="url(#linear-gradient-47)"/>
        <circle id="Ellipse_23-4" data-name="Ellipse 23" cx="3.5" cy="3.5" r="3.5" transform="translate(1390 -45.087)" fill="url(#linear-gradient-47)"/>
        <circle id="Ellipse_13-4" data-name="Ellipse 13" cx="3.5" cy="3.5" r="3.5" transform="translate(822 480.913)" fill="url(#linear-gradient-47)"/>
      </g>
    </g>
  </g>
</svg>
