<svg xmlns="http://www.w3.org/2000/svg" xmlns:xlink="http://www.w3.org/1999/xlink" width="321" height="312.732" viewBox="0 0 321 312.732">
  <defs>
    <filter id="lua" x="0" y="0" width="321" height="312.732" filterUnits="userSpaceOnUse">
      <feOffset input="SourceAlpha"/>
      <feGaussianBlur stdDeviation="10" result="blur"/>
      <feFlood flood-color="#f1eaea"/>
      <feComposite operator="in" in2="blur"/>
      <feComposite in="SourceGraphic"/>
    </filter>
  </defs>
  <g id="lua-2" data-name="lua" transform="translate(-104 -106)">
    <g transform="matrix(1, 0, 0, 1, 104, 106)" filter="url(#lua)">
      <ellipse id="lua-3" data-name="lua" cx="130.5" cy="126.366" rx="130.5" ry="126.366" transform="translate(30 30)" fill="#fff"/>
    </g>
    <circle id="Ellipse_36" data-name="Ellipse 36" cx="24.5" cy="24.5" r="24.5" transform="translate(345 245.41)" fill="#c7c7c7"/>
    <path id="Path_9" data-name="Path 9" d="M30.226-14.626c17.209,0,37.508,33.343,37.508,50.552A31.159,31.159,0,0,1,36.574,67.085c-17.209,0-53.189-21.175-53.189-38.383S13.017-14.626,30.226-14.626Z" transform="translate(218.747 231.895)" fill="#c7c7c7"/>
    <path id="Path_6" data-name="Path 6" d="M49.059,6.1H79.278s33.959-.052,33.959,16.394c0,27.095-37.084,41.358-64.178,41.358A49.059,49.059,0,0,1,0,14.8C0-12.3,21.964,6.1,49.059,6.1Z" transform="translate(327.758 250.215) rotate(-139)" fill="#c7c7c7"/>
    <path id="Path_5" data-name="Path 5" d="M23.946,0C39.324,0,36.209,4.64,36.209,20.018c0,1.538,4.316,17.89,4.009,19.752C38.127,52.609,32.576,59.8,18.736,59.8,3.358,59.8,0,37.708,0,22.33S8.568,0,23.946,0Z" transform="translate(195.759 163.86) rotate(43)" fill="#c7c7c7"/>
    <circle id="Ellipse_35" data-name="Ellipse 35" cx="24.5" cy="24.5" r="24.5" transform="translate(345 237.711)" fill="#c7c7c7"/>
  </g>
</svg>
